<?xml version="1.0" standalone="no"?>
<!DOCTYPE svg PUBLIC "-//W3C//DTD SVG 20010904//EN"
 "http://www.w3.org/TR/2001/REC-SVG-20010904/DTD/svg10.dtd">
<svg version="1.0" xmlns="http://www.w3.org/2000/svg"
 width="1080.000000pt" height="1080.000000pt" viewBox="0 0 1080.000000 1080.000000"
 preserveAspectRatio="xMidYMid meet">
<metadata>
Created by potrace 1.14, written by Peter Selinger 2001-2017
</metadata>
<g transform="translate(0.000000,1080.000000) scale(0.100000,-0.100000)"
fill="#000000" stroke="none">
<path d="M0 5400 l0 -5400 5400 0 5400 0 0 5400 0 5400 -5400 0 -5400 0 0
-5400z m6340 1203 c0 -34 -430 -1963 -448 -2011 -69 -181 -294 -355 -564 -436
-177 -53 -138 -51 -1148 -51 l-945 0 -90 24 c-180 47 -322 134 -394 242 -45
68 -60 109 -67 189 -7 78 161 836 206 926 76 156 275 306 509 384 196 66 154
63 976 67 l750 4 69 317 c38 174 73 327 77 340 l9 22 530 0 c492 0 530 -1 530
-17z m1395 -15 c-4 -18 -37 -170 -74 -338 l-67 -305 254 -3 254 -2 -5 -23 c-3
-12 -27 -122 -53 -243 l-48 -222 -171 -4 c-141 -4 -179 -9 -223 -26 -74 -28
-121 -67 -142 -116 -10 -23 -75 -303 -146 -623 l-128 -583 -538 0 c-426 0
-536 3 -533 13 2 6 126 566 275 1242 149 677 273 1238 276 1248 5 16 39 17
540 17 l535 0 -6 -32z"/>
<path d="M4110 5436 c-106 -24 -192 -87 -210 -156 -5 -19 -34 -152 -66 -295
l-56 -260 18 -35 c24 -44 72 -76 135 -89 30 -7 177 -11 362 -11 339 0 389 6
471 54 83 49 86 57 170 433 42 189 76 350 76 358 0 13 -51 15 -422 14 -294 0
-440 -4 -478 -13z"/>
</g>
</svg>
